<?xml version="1.0" encoding="UTF-8"?>
<svg height="250" width="250" xmlns="http://www.w3.org/2000/svg">
<path d="M 147.7 24.8 c -0.4 0 -0.8 0 -1.2 0.1 c -15.6 2.8 -24.2 19.8 -25.4 34.8 c -1.8 13.6 4 31.1 18.5 34.2 c 2.1 0.4 4.3 0.2 6.3 -0.4 c 17.4 -6 25.3 -27.4 22.7 -45 c -0.7 -11.4 -9.1 -23.8 -21 -23.6 z m -66.1 0.7 c -9.7 0.2 -17.2 10.4 -18.8 19.9 c -3.2 18.9 5.1 42.4 24.2 48.3 c 1.8 0.4 3.6 0.4 5.4 0.2 c 12.9 -2.2 18.4 -17.1 17.8 -29.2 c -0.4 -15.9 -8.4 -34.3 -24.4 -38.7 c -1.5 -0.4 -2.9 -0.6 -4.3 -0.5 z m 108.3 53.7 c -16.8 1 -28.3 18.3 -29.9 34.4 c -2.2 11.6 3.8 27.2 16.6 28.1 c 17.9 -0.2 30.2 -20 30.7 -37 c 1.1 -11.3 -5.3 -24.9 -17.4 -25.5 z m -146.8 3.8 c -7.1 -0.1 -14.2 4.3 -16.5 11.8 c -6.2 20 6.3 45.4 26.8 49.6 c 8.6 1.5 16.1 -5.3 18.2 -13.5 c 4.5 -17.5 -4.8 -37.8 -20.4 -45.7 c -2.6 -1.5 -5.4 -2.2 -8.2 -2.2 z m 75.2 35.9 c -14 0 -28.2 7.4 -37.3 18.3 c -9.8 12.7 -17.8 27.5 -20.9 43.5 c -3.8 11.5 4.8 24.8 16.8 24.9 c 14.4 0.4 26.8 -9.8 41.1 -10.5 c 12.1 -1.9 23 4.6 33.9 8.9 c 9.3 4.1 22.1 2.5 26.9 -7.8 c 3.7 -10.5 -1.8 -21.7 -6.3 -31.1 c -9.3 -15.2 -19.2 -31.1 -34.4 -40.6 c -6.1 -3.9 -12.9 -5.6 -19.7 -5.6 z" />
</svg>