<?xml version="1.0" encoding="UTF-8"?>
<svg viewBox="0 0 419.14 403.6" xmlns="http://www.w3.org/2000/svg">
 <path d="m147.66 24.808c-0.38417 0.005051-0.77826 0.02449-1.1698 0.056129-15.592 2.777-24.166 19.789-25.408 34.791-1.8153 13.613 3.9987 31.109 18.485 34.159 2.1012 0.41275 4.2845 0.22411 6.3384-0.35088 17.444-6.0351 25.25-27.351 22.729-45.008-0.73297-11.404-9.0645-23.804-20.974-23.648zm-66.105 0.7298c-9.6953 0.24557-17.248 10.391-18.784 19.928-3.2387 18.895 5.0918 42.373 24.17 48.348 1.787 0.40099 3.6355 0.44228 5.4407 0.15437 12.895-2.2174 18.358-17.135 17.818-29.177-0.38811-15.886-8.3856-34.254-24.374-38.72-1.4615-0.39988-2.8859-0.56838-4.271-0.5333zm108.35 53.667c-16.772 1.0353-28.271 18.302-29.91 34.426-2.2196 11.629 3.7888 27.182 16.649 28.11 17.931-0.22806 30.164-19.998 30.672-37.008 1.1342-11.25-5.2888-24.907-17.41-25.528zm-146.8 3.8313c-7.1356-0.063339-14.154 4.3467-16.485 11.831-6.221 20.02 6.2716 45.376 26.823 49.583 8.577 1.5144 16.113-5.2817 18.24-13.459 4.5069-17.49-4.7501-37.798-20.416-45.737-2.5523-1.4779-5.3689-2.1926-8.1611-2.2174zm75.191 35.899c-13.989 0.030777-28.197 7.3553-37.255 18.258-9.7834 12.708-17.798 27.496-20.933 43.534-3.8091 11.545 4.8241 24.83 16.785 24.911 14.389 0.41242 26.756-9.7826 41.064-10.54 12.139-1.9094 23.009 4.6055 33.923 8.8696 9.2924 4.1008 22.133 2.5293 26.877-7.789 3.7317-10.517-1.761-21.732-6.3112-31.072-9.2806-15.16-19.223-31.093-34.44-40.559-6.0992-3.9007-12.877-5.6287-19.709-5.6137z" fill="#fff"/>
 <path d="m324.66 195.81c-0.38416 0.005051-0.77826 0.02449-1.1697 0.056137-15.592 2.777-24.166 19.789-25.408 34.791-1.8153 13.613 3.9988 31.109 18.485 34.159 2.1012 0.41272 4.2845 0.22409 6.3384-0.35089 17.444-6.0351 25.25-27.351 22.729-45.008-0.73297-11.404-9.0645-23.804-20.974-23.648zm-66.105 0.7298c-9.6953 0.24556-17.248 10.391-18.784 19.928-3.2387 18.895 5.0918 42.373 24.17 48.348 1.787 0.40097 3.6355 0.44226 5.4407 0.15436 12.895-2.2174 18.358-17.135 17.818-29.177-0.38809-15.886-8.3856-34.254-24.374-38.72-1.4615-0.39989-2.8859-0.56839-4.271-0.53331zm108.35 53.667c-16.772 1.0353-28.271 18.302-29.91 34.426-2.2196 11.629 3.7888 27.182 16.649 28.11 17.931-0.22806 30.164-19.998 30.672-37.008 1.1342-11.25-5.2888-24.907-17.41-25.528zm-146.8 3.8313c-7.1356-0.063339-14.154 4.3467-16.485 11.831-6.221 20.02 6.2716 45.376 26.823 49.583 8.577 1.5144 16.113-5.2817 18.24-13.459 4.5069-17.49-4.7501-37.798-20.416-45.737-2.5523-1.4779-5.3689-2.1926-8.1611-2.2174zm75.191 35.899c-13.989 0.030762-28.197 7.3553-37.255 18.258-9.7835 12.708-17.798 27.496-20.933 43.534-3.8091 11.545 4.8241 24.83 16.785 24.911 14.389 0.41242 26.756-9.7826 41.064-10.54 12.139-1.9094 23.009 4.6055 33.923 8.8696 9.2924 4.1008 22.133 2.5293 26.877-7.789 3.7317-10.517-1.761-21.732-6.3112-31.072-9.2806-15.16-19.223-31.093-34.44-40.559-6.0992-3.9007-12.877-5.6287-19.709-5.6136z" fill="#fff"/>
</svg>
